<svg width="1546" height="1512" viewBox="0 0 1546 1512" fill="none" xmlns="http://www.w3.org/2000/svg">
<path fill-rule="evenodd" clip-rule="evenodd" d="M773 0C345.918 0 0 346.867 0 775.122C0 1118.11 221.271 1407.82 528.539 1510.52C567.189 1517.3 581.682 1494.05 581.682 1473.7C581.682 1455.29 580.716 1394.25 580.716 1329.33C386.5 1365.18 336.255 1281.86 320.795 1238.26C312.099 1215.97 274.415 1147.18 241.562 1128.77C214.507 1114.24 175.857 1078.39 240.596 1077.42C301.47 1076.45 344.951 1133.62 359.445 1156.87C429.015 1274.11 540.134 1241.16 584.581 1220.82C591.345 1170.43 611.636 1136.52 633.86 1117.14C461.867 1097.77 282.145 1030.91 282.145 734.428C282.145 650.134 312.099 580.373 361.378 526.114C353.648 506.736 326.592 427.286 369.107 320.707C369.107 320.707 433.846 300.36 581.682 400.157C643.522 382.717 709.227 373.996 774.932 373.996C840.637 373.996 906.342 382.717 968.182 400.157C1116.02 299.391 1180.76 320.707 1180.76 320.707C1223.27 427.286 1196.22 506.736 1188.49 526.114C1237.77 580.373 1267.72 649.165 1267.72 734.428C1267.72 1031.88 1087.03 1097.77 915.039 1117.14C943.06 1141.37 967.216 1187.87 967.216 1260.54C967.216 1364.21 966.25 1447.54 966.25 1473.7C966.25 1494.05 980.744 1518.27 1019.39 1510.52C1172.85 1458.57 1306.19 1359.67 1400.65 1227.75C1495.12 1095.83 1545.95 937.529 1546 775.122C1546 346.867 1200.08 0 773 0Z" fill="#D2D2D2"/>
</svg>
